# xmcd
#
# Track frame offsets: 
#        150
#        16355
#        35582
#        47980
#        64290
#        76305
#        91865
#        106980
#        126897
#        150735
#        171332
#
# Disc length: 2487 seconds
#
# Revision: 1
# Processed by: cddbd v1.5.2PL0 Copyright (c) Steve Scherf et al.
# Submitted via: ExactAudioCopy v0.99pb4
#
DISCID=8d09b50b
DTITLE=Various Artist - Putumayo Presents A Mediterranean Odyssey
DYEAR=2004
DGENRE=World
TTITLE0=Miguel Gil (Spain) - Desesperao
TTITLE1=Barrio Chino (France) - Saudade
TTITLE2=Tekameli (France) - Que Son
TTITLE3=Luis Delgado (Spain) - Bebiendo Al Alba
TTITLE4=Maria Salgado (Spain) - Solo Por Miedo
TTITLE5=George Dalaras (Greece) - Pame Gi Allou
TTITLE6=Glykeria (Greece) - Pare Me Apopse Pare Me
TTITLE7=Novalia (Italy) - ebla
TTITLE8=Anemos (Greece) - Miazis Me fotia
TTITLE9=Calic (Italy) - UnPoeta
TTITLE10=Il Trillo with Lucilla Galeazzi (Italy) - Songna Fiore Mio
EXTD=YEAR: 2004
EXTT0=
EXTT1=
EXTT2=
EXTT3=
EXTT4=
EXTT5=
EXTT6=
EXTT7=
EXTT8=
EXTT9=
EXTT10=
PLAYORDER=
